<?xml version="1.0" encoding="UTF-8" standalone="no"?>
<svg
   xmlns:dc="http://purl.org/dc/elements/1.1/"
   xmlns:cc="http://creativecommons.org/ns#"
   xmlns:rdf="http://www.w3.org/1999/02/22-rdf-syntax-ns#"
   xmlns:svg="http://www.w3.org/2000/svg"
   xmlns="http://www.w3.org/2000/svg"
   viewBox="0 0 990 765"
   height="765"
   width="990"
   xml:space="preserve"
   version="1.1"
   id="svg2"><metadata
     id="metadata8"><rdf:RDF><cc:Work
         rdf:about=""><dc:format>image/svg+xml</dc:format><dc:type
           rdf:resource="http://purl.org/dc/dcmitype/StillImage" /></cc:Work></rdf:RDF></metadata><defs
     id="defs6"><clipPath
       id="clipPath32"
       clipPathUnits="userSpaceOnUse"><path
         style="clip-rule:evenodd"
         id="path34"
         d="m 35.68,23.84 0,19.84 98.71999,0 0,-19.84 -98.71999,0 z" /></clipPath><clipPath
       id="clipPath46"
       clipPathUnits="userSpaceOnUse"><path
         style="clip-rule:evenodd"
         id="path48"
         d="m 35.68,23.84 0,19.84 98.71999,0 0,-19.84 -98.71999,0 z" /></clipPath><clipPath
       id="clipPath60"
       clipPathUnits="userSpaceOnUse"><path
         style="clip-rule:evenodd"
         id="path62"
         d="m 35.68,23.84 0,19.84 98.71999,0 0,-19.84 -98.71999,0 z" /></clipPath><clipPath
       id="clipPath94"
       clipPathUnits="userSpaceOnUse"><path
         style="clip-rule:evenodd"
         id="path96"
         d="m 47.68,59.68 0,19.839997 92.64001,0 0,-19.839997 -92.64001,0 z" /></clipPath><clipPath
       id="clipPath108"
       clipPathUnits="userSpaceOnUse"><path
         style="clip-rule:evenodd"
         id="path110"
         d="m 47.68,59.68 0,19.839997 92.64001,0 0,-19.839997 -92.64001,0 z" /></clipPath><clipPath
       id="clipPath122"
       clipPathUnits="userSpaceOnUse"><path
         style="clip-rule:evenodd"
         id="path124"
         d="m 47.68,59.68 0,19.839997 92.64001,0 0,-19.839997 -92.64001,0 z" /></clipPath><clipPath
       id="clipPath156"
       clipPathUnits="userSpaceOnUse"><path
         style="clip-rule:evenodd"
         id="path158"
         d="m 59.68,95.360001 0,19.999999 84.32,0 0,-19.999999 -84.32,0 z" /></clipPath><clipPath
       id="clipPath170"
       clipPathUnits="userSpaceOnUse"><path
         style="clip-rule:evenodd"
         id="path172"
         d="m 59.68,95.360001 0,19.999999 84.32,0 0,-19.999999 -84.32,0 z" /></clipPath><clipPath
       id="clipPath184"
       clipPathUnits="userSpaceOnUse"><path
         style="clip-rule:evenodd"
         id="path186"
         d="m 59.68,95.360001 0,19.999999 84.32,0 0,-19.999999 -84.32,0 z" /></clipPath><clipPath
       id="clipPath202"
       clipPathUnits="userSpaceOnUse"><path
         style="clip-rule:evenodd"
         id="path204"
         d="m 59.68,115.2 167.84,0 0,64.64 -167.84,0 0,-64.64 z" /></clipPath><clipPath
       id="clipPath228"
       clipPathUnits="userSpaceOnUse"><path
         style="clip-rule:evenodd"
         id="path230"
         d="m 238.72,95.360001 0,19.999999 107.51999,0 0,-19.999999 -107.51999,0 z" /></clipPath><clipPath
       id="clipPath242"
       clipPathUnits="userSpaceOnUse"><path
         style="clip-rule:evenodd"
         id="path244"
         d="m 238.72,95.360001 0,19.999999 107.51999,0 0,-19.999999 -107.51999,0 z" /></clipPath><clipPath
       id="clipPath256"
       clipPathUnits="userSpaceOnUse"><path
         style="clip-rule:evenodd"
         id="path258"
         d="m 238.72,95.360001 0,19.999999 107.51999,0 0,-19.999999 -107.51999,0 z" /></clipPath><clipPath
       id="clipPath274"
       clipPathUnits="userSpaceOnUse"><path
         style="clip-rule:evenodd"
         id="path276"
         d="m 238.72,115.2 167.84,0 0,64.64 -167.84,0 0,-64.64 z" /></clipPath><clipPath
       id="clipPath284"
       clipPathUnits="userSpaceOnUse"><path
         style="clip-rule:evenodd"
         id="path286"
         d="m 47.68,79.360001 370.88,0 0,112.319989 -370.88,0 0,-112.319989 z" /></clipPath><clipPath
       id="clipPath310"
       clipPathUnits="userSpaceOnUse"><path
         style="clip-rule:evenodd"
         id="path312"
         d="m 47.68,202.88 0,19.84 50.239998,0 0,-19.84 -50.239998,0 z" /></clipPath><clipPath
       id="clipPath324"
       clipPathUnits="userSpaceOnUse"><path
         style="clip-rule:evenodd"
         id="path326"
         d="m 47.68,202.88 0,19.84 50.239998,0 0,-19.84 -50.239998,0 z" /></clipPath><clipPath
       id="clipPath338"
       clipPathUnits="userSpaceOnUse"><path
         style="clip-rule:evenodd"
         id="path340"
         d="m 47.68,202.88 0,19.84 50.239998,0 0,-19.84 -50.239998,0 z" /></clipPath><clipPath
       id="clipPath356"
       clipPathUnits="userSpaceOnUse"><path
         style="clip-rule:evenodd"
         id="path358"
         d="m 47.68,222.56 179.84,0 0,40.79999 -179.84,0 0,-40.79999 z" /></clipPath><clipPath
       id="clipPath382"
       clipPathUnits="userSpaceOnUse"><path
         style="clip-rule:evenodd"
         id="path384"
         d="m 238.72,202.88 0,19.84 48.48001,0 0,-19.84 -48.48001,0 z" /></clipPath><clipPath
       id="clipPath396"
       clipPathUnits="userSpaceOnUse"><path
         style="clip-rule:evenodd"
         id="path398"
         d="m 238.72,202.88 0,19.84 48.48001,0 0,-19.84 -48.48001,0 z" /></clipPath><clipPath
       id="clipPath410"
       clipPathUnits="userSpaceOnUse"><path
         style="clip-rule:evenodd"
         id="path412"
         d="m 238.72,202.88 0,19.84 48.48001,0 0,-19.84 -48.48001,0 z" /></clipPath><clipPath
       id="clipPath428"
       clipPathUnits="userSpaceOnUse"><path
         style="clip-rule:evenodd"
         id="path430"
         d="m 238.72,222.56 179.84,0 0,40.79999 -179.84,0 0,-40.79999 z" /></clipPath><clipPath
       id="clipPath438"
       clipPathUnits="userSpaceOnUse"><path
         style="clip-rule:evenodd"
         id="path440"
         d="m 35.68,43.52 394.71999,0 0,231.68001 -394.71999,0 0,-231.68001 z" /></clipPath></defs><g
     transform="scale(0.9375,0.9375)"
     id="g10"><g
       id="g12"><path
         id="path14"
         style="fill:#fffaeb;fill-opacity:1;fill-rule:nonzero;stroke:none"
         d="m 35.68,23.84 98.07999,0 0,19.200001 -98.07999,0 0,-19.200001 z" /></g><g
       id="g16"><text
         id="text18"
         style="font-variant:normal;font-weight:normal;font-size:5.29001999px;font-family:F1;-inkscape-font-specification:F1;writing-mode:lr-tb;fill:#000000;fill-opacity:1;fill-rule:nonzero;stroke:none"
         transform="translate(69.599998,29.280001)"><tspan
           id="tspan20"
           y="0"
           x="0 3.0153115 6.1046004 10.706918 13.938272 17.112286 20.343639 21.771946 24.681456 27.696768">&lt;&lt;module&gt;&gt;</tspan></text>
</g><g
       id="g22"><text
         id="text24"
         style="font-variant:normal;font-weight:normal;font-size:6.73274994px;font-family:F1;-inkscape-font-specification:F1;writing-mode:lr-tb;fill:#000000;fill-opacity:1;fill-rule:nonzero;stroke:none"
         transform="translate(78.879997,38.400002)"><tspan
           id="tspan26"
           y="0"
           x="0 3.7030125 7.8156443">app</tspan></text>
</g><g
       id="g28"><g
         clip-path="url(#clipPath32)"
         id="g30"><path
           id="path36"
           style="fill:none;stroke:#9b916e;stroke-width:0.5;stroke-linecap:round;stroke-linejoin:round;stroke-miterlimit:10;stroke-dasharray:none;stroke-opacity:1"
           d="m 35.68,23.84 97.92001,0" /></g></g><g
       id="g38"><path
         id="path40"
         style="fill:#9b916e;fill-opacity:1;fill-rule:nonzero;stroke:none"
         d="m 133.60001,23.84 0.15998,0 0,0.16 -0.15998,0 0,-0.16 z" /></g><g
       id="g42"><g
         clip-path="url(#clipPath46)"
         id="g44"><path
           id="path50"
           style="fill:none;stroke:#9b916e;stroke-width:0.5;stroke-linecap:round;stroke-linejoin:round;stroke-miterlimit:10;stroke-dasharray:none;stroke-opacity:1"
           d="m 35.68,23.84 0,19.040001" /></g></g><g
       id="g52"><path
         id="path54"
         style="fill:#9b916e;fill-opacity:1;fill-rule:nonzero;stroke:none"
         d="m 35.68,42.880001 0.16,0 0,0.16 -0.16,0 0,-0.16 z" /></g><g
       id="g56"><g
         clip-path="url(#clipPath60)"
         id="g58"><path
           id="path64"
           style="fill:none;stroke:#9b916e;stroke-width:0.5;stroke-linecap:round;stroke-linejoin:round;stroke-miterlimit:10;stroke-dasharray:none;stroke-opacity:1"
           d="m 133.60001,23.84 0,19.040001" /></g></g><g
       id="g66"><path
         id="path68"
         style="fill:#9b916e;fill-opacity:1;fill-rule:nonzero;stroke:none"
         d="m 133.60001,42.880001 0.15998,0 0,0.16 -0.15998,0 0,-0.16 z" /></g><g
       id="g70"><path
         id="path72"
         style="fill:#fffaeb;fill-opacity:1;fill-rule:nonzero;stroke:none"
         d="m 35.68,43.52 394.24001,0 0,231.2 -394.24001,0 0,-231.2 z" /></g><g
       id="g74"><path
         id="path76"
         style="fill:#fffaeb;fill-opacity:1;fill-rule:nonzero;stroke:none"
         d="m 47.68,59.68 92.16,0 0,19.199997 -92.16,0 0,-19.199997 z" /></g><g
       id="g78"><text
         id="text80"
         style="font-variant:normal;font-weight:normal;font-size:5.29001999px;font-family:F1;-inkscape-font-specification:F1;writing-mode:lr-tb;fill:#000000;fill-opacity:1;fill-rule:nonzero;stroke:none"
         transform="translate(78.559998,65.120003)"><tspan
           id="tspan82"
           y="0"
           x="0 3.0153115 6.1046004 10.706918 13.938272 17.112286 20.343639 21.771946 24.681456 27.696768">&lt;&lt;module&gt;&gt;</tspan></text>
</g><g
       id="g84"><text
         id="text86"
         style="font-variant:normal;font-weight:normal;font-size:6.73274994px;font-family:F1;-inkscape-font-specification:F1;writing-mode:lr-tb;fill:#000000;fill-opacity:1;fill-rule:nonzero;stroke:none"
         transform="translate(66.879997,74.239998)"><tspan
           id="tspan88"
           y="0"
           x="0 3.7030125 7.8156443 11.989949 13.942447 17.578133 21.752438 27.677258 31.851563 36.025867 40.200172 43.835857 48.010162 50.25222">app.components</tspan></text>
</g><g
       id="g90"><g
         clip-path="url(#clipPath94)"
         id="g92"><path
           id="path98"
           style="fill:none;stroke:#9b916e;stroke-width:0.5;stroke-linecap:round;stroke-linejoin:round;stroke-miterlimit:10;stroke-dasharray:none;stroke-opacity:1"
           d="m 47.68,59.68 91.99999,0" /></g></g><g
       id="g100"><path
         id="path102"
         style="fill:#9b916e;fill-opacity:1;fill-rule:nonzero;stroke:none"
         d="m 139.67999,59.68 0.16001,0 0,0.16 -0.16001,0 0,-0.16 z" /></g><g
       id="g104"><g
         clip-path="url(#clipPath108)"
         id="g106"><path
           id="path112"
           style="fill:none;stroke:#9b916e;stroke-width:0.5;stroke-linecap:round;stroke-linejoin:round;stroke-miterlimit:10;stroke-dasharray:none;stroke-opacity:1"
           d="m 47.68,59.68 0,19.040001" /></g></g><g
       id="g114"><path
         id="path116"
         style="fill:#9b916e;fill-opacity:1;fill-rule:nonzero;stroke:none"
         d="m 47.68,78.720001 0.16,0 0,0.159996 -0.16,0 0,-0.159996 z" /></g><g
       id="g118"><g
         clip-path="url(#clipPath122)"
         id="g120"><path
           id="path126"
           style="fill:none;stroke:#9b916e;stroke-width:0.5;stroke-linecap:round;stroke-linejoin:round;stroke-miterlimit:10;stroke-dasharray:none;stroke-opacity:1"
           d="m 139.67999,59.68 0,19.040001" /></g></g><g
       id="g128"><path
         id="path130"
         style="fill:#9b916e;fill-opacity:1;fill-rule:nonzero;stroke:none"
         d="m 139.67999,78.720001 0.16001,0 0,0.159996 -0.16001,0 0,-0.159996 z" /></g><g
       id="g132"><path
         id="path134"
         style="fill:#fffaeb;fill-opacity:1;fill-rule:nonzero;stroke:none"
         d="m 47.68,79.360001 370.24001,0 0,111.679989 -370.24001,0 0,-111.679989 z" /></g><g
       id="g136"><path
         id="path138"
         style="fill:#fffaeb;fill-opacity:1;fill-rule:nonzero;stroke:none"
         d="m 59.68,95.360001 83.68,0 0,19.359999 -83.68,0 0,-19.359999 z" /></g><g
       id="g140"><text
         id="text142"
         style="font-variant:normal;font-weight:normal;font-size:5.29001999px;font-family:F1;-inkscape-font-specification:F1;writing-mode:lr-tb;fill:#000000;fill-opacity:1;fill-rule:nonzero;stroke:none"
         transform="translate(86.239998,100.96)"><tspan
           id="tspan144"
           y="0"
           x="0 3.0153115 6.1046004 10.706918 13.938272 17.112286 20.343639 21.771946 24.681456 27.696768">&lt;&lt;module&gt;&gt;</tspan></text>
</g><g
       id="g146"><text
         id="text148"
         style="font-variant:normal;font-weight:normal;font-size:6.73274994px;font-family:F1;-inkscape-font-specification:F1;writing-mode:lr-tb;fill:#000000;fill-opacity:1;fill-rule:nonzero;stroke:none"
         transform="translate(64.32,110.08)"><tspan
           id="tspan150"
           y="0"
           x="0 3.7030125 7.8156443 11.989949 13.942447 17.578133 21.752438 27.677258 31.851563 36.025867 40.200172 43.835857 48.010162 50.25222 53.955235 55.825806 59.52882 63.703125 65.5737 67.862831 72.03714">app.components.editor</tspan></text>
</g><g
       id="g152"><g
         clip-path="url(#clipPath156)"
         id="g154"><path
           id="path160"
           style="fill:none;stroke:#9b916e;stroke-width:0.5;stroke-linecap:round;stroke-linejoin:round;stroke-miterlimit:10;stroke-dasharray:none;stroke-opacity:1"
           d="m 59.68,95.360001 83.52,0" /></g></g><g
       id="g162"><path
         id="path164"
         style="fill:#9b916e;fill-opacity:1;fill-rule:nonzero;stroke:none"
         d="m 143.2,95.360001 0.16,0 0,0.159996 -0.16,0 0,-0.159996 z" /></g><g
       id="g166"><g
         clip-path="url(#clipPath170)"
         id="g168"><path
           id="path174"
           style="fill:none;stroke:#9b916e;stroke-width:0.5;stroke-linecap:round;stroke-linejoin:round;stroke-miterlimit:10;stroke-dasharray:none;stroke-opacity:1"
           d="m 59.68,95.360001 0,19.199999" /></g></g><g
       id="g176"><path
         id="path178"
         style="fill:#9b916e;fill-opacity:1;fill-rule:nonzero;stroke:none"
         d="m 59.68,114.56 0.16,0 0,0.16 -0.16,0 0,-0.16 z" /></g><g
       id="g180"><g
         clip-path="url(#clipPath184)"
         id="g182"><path
           id="path188"
           style="fill:none;stroke:#9b916e;stroke-width:0.5;stroke-linecap:round;stroke-linejoin:round;stroke-miterlimit:10;stroke-dasharray:none;stroke-opacity:1"
           d="m 143.2,95.360001 0,19.199999" /></g></g><g
       id="g190"><path
         id="path192"
         style="fill:#9b916e;fill-opacity:1;fill-rule:nonzero;stroke:none"
         d="m 143.2,114.56 0.16,0 0,0.16 -0.16,0 0,-0.16 z" /></g><g
       id="g194"><path
         id="path196"
         style="fill:#fffaeb;fill-opacity:1;fill-rule:nonzero;stroke:none"
         d="m 59.68,115.2 167.2,0 0,64 -167.2,0 0,-64 z" /></g><g
       id="g198"><g
         clip-path="url(#clipPath202)"
         id="g200"><path
           id="path206"
           style="fill:none;stroke:#9b916e;stroke-width:0.47999999;stroke-linecap:butt;stroke-linejoin:miter;stroke-miterlimit:10;stroke-dasharray:none;stroke-opacity:1"
           d="m 226.72,115.2 -167.04,0 0,63.83999 167.04,0 0,-63.83999 z" /></g></g><g
       id="g208"><path
         id="path210"
         style="fill:#fffaeb;fill-opacity:1;fill-rule:nonzero;stroke:none"
         d="m 238.72,95.360001 107.04001,0 0,19.359999 -107.04001,0 0,-19.359999 z" /></g><g
       id="g212"><text
         id="text214"
         style="font-variant:normal;font-weight:normal;font-size:5.29001999px;font-family:F1;-inkscape-font-specification:F1;writing-mode:lr-tb;fill:#000000;fill-opacity:1;fill-rule:nonzero;stroke:none"
         transform="translate(277.12,100.96)"><tspan
           id="tspan216"
           y="0"
           x="0 3.0153115 6.1046004 10.706918 13.938272 17.112286 20.343639 21.771946 24.681456 27.696768">&lt;&lt;module&gt;&gt;</tspan></text>
</g><g
       id="g218"><text
         id="text220"
         style="font-variant:normal;font-weight:normal;font-size:6.73274994px;font-family:F1;-inkscape-font-specification:F1;writing-mode:lr-tb;fill:#000000;fill-opacity:1;fill-rule:nonzero;stroke:none"
         transform="translate(244.8,110.08)"><tspan
           id="tspan222"
           y="0"
           x="0 3.7030125 7.8156443 11.989949 13.942447 17.578133 21.752438 27.677258 31.851563 36.025867 40.200172 43.835857 48.010162 50.25222 53.955235 55.825806 60.000111 63.703125 67.877426 71.513115 75.687416 81.612236 85.315254 87.873695 91.509384">app.components.benchmarks</tspan></text>
</g><g
       id="g224"><g
         clip-path="url(#clipPath228)"
         id="g226"><path
           id="path232"
           style="fill:none;stroke:#9b916e;stroke-width:0.5;stroke-linecap:round;stroke-linejoin:round;stroke-miterlimit:10;stroke-dasharray:none;stroke-opacity:1"
           d="m 238.72,95.360001 106.88001,0" /></g></g><g
       id="g234"><path
         id="path236"
         style="fill:#9b916e;fill-opacity:1;fill-rule:nonzero;stroke:none"
         d="m 345.60001,95.360001 0.16,0 0,0.159996 -0.16,0 0,-0.159996 z" /></g><g
       id="g238"><g
         clip-path="url(#clipPath242)"
         id="g240"><path
           id="path246"
           style="fill:none;stroke:#9b916e;stroke-width:0.5;stroke-linecap:round;stroke-linejoin:round;stroke-miterlimit:10;stroke-dasharray:none;stroke-opacity:1"
           d="m 238.72,95.360001 0,19.199999" /></g></g><g
       id="g248"><path
         id="path250"
         style="fill:#9b916e;fill-opacity:1;fill-rule:nonzero;stroke:none"
         d="m 238.72,114.56 0.16,0 0,0.16 -0.16,0 0,-0.16 z" /></g><g
       id="g252"><g
         clip-path="url(#clipPath256)"
         id="g254"><path
           id="path260"
           style="fill:none;stroke:#9b916e;stroke-width:0.5;stroke-linecap:round;stroke-linejoin:round;stroke-miterlimit:10;stroke-dasharray:none;stroke-opacity:1"
           d="m 345.60001,95.360001 0,19.199999" /></g></g><g
       id="g262"><path
         id="path264"
         style="fill:#9b916e;fill-opacity:1;fill-rule:nonzero;stroke:none"
         d="m 345.60001,114.56 0.16,0 0,0.16 -0.16,0 0,-0.16 z" /></g><g
       id="g266"><path
         id="path268"
         style="fill:#fffaeb;fill-opacity:1;fill-rule:nonzero;stroke:none"
         d="m 238.72,115.2 167.35999,0 0,64 -167.35999,0 0,-64 z" /></g><g
       id="g270"><g
         clip-path="url(#clipPath274)"
         id="g272"><path
           id="path278"
           style="fill:none;stroke:#9b916e;stroke-width:0.47999999;stroke-linecap:butt;stroke-linejoin:miter;stroke-miterlimit:10;stroke-dasharray:none;stroke-opacity:1"
           d="m 405.92001,115.2 -167.20001,0 0,63.83999 167.20001,0 0,-63.83999 z" /></g></g><g
       id="g280"><g
         clip-path="url(#clipPath284)"
         id="g282"><path
           id="path288"
           style="fill:none;stroke:#9b916e;stroke-width:0.47999999;stroke-linecap:butt;stroke-linejoin:miter;stroke-miterlimit:10;stroke-dasharray:none;stroke-opacity:1"
           d="m 417.76001,79.360001 -370.08001,0 0,111.519999 370.08001,0 0,-111.519999 z" /></g></g><g
       id="g290"><path
         id="path292"
         style="fill:#fffaeb;fill-opacity:1;fill-rule:nonzero;stroke:none"
         d="m 47.68,202.88 49.760002,0 0,19.2 -49.760002,0 0,-19.2 z" /></g><g
       id="g294"><text
         id="text296"
         style="font-variant:normal;font-weight:normal;font-size:5.29001999px;font-family:F1;-inkscape-font-specification:F1;writing-mode:lr-tb;fill:#000000;fill-opacity:1;fill-rule:nonzero;stroke:none"
         transform="translate(57.439999,208.48)"><tspan
           id="tspan298"
           y="0"
           x="0 3.0153115 6.1046004 10.706918 13.938272 17.112286 20.343639 21.771946 24.681456 27.696768">&lt;&lt;module&gt;&gt;</tspan></text>
</g><g
       id="g300"><text
         id="text302"
         style="font-variant:normal;font-weight:normal;font-size:6.73274994px;font-family:F1;-inkscape-font-specification:F1;writing-mode:lr-tb;fill:#000000;fill-opacity:1;fill-rule:nonzero;stroke:none"
         transform="translate(51.84,217.44)"><tspan
           id="tspan304"
           y="0"
           x="0 3.7030125 7.8156443 11.989949 13.942447 17.578133 21.752438 27.677258 33.602077 37.776382">app.common</tspan></text>
</g><g
       id="g306"><g
         clip-path="url(#clipPath310)"
         id="g308"><path
           id="path314"
           style="fill:none;stroke:#9b916e;stroke-width:0.5;stroke-linecap:round;stroke-linejoin:round;stroke-miterlimit:10;stroke-dasharray:none;stroke-opacity:1"
           d="m 47.68,202.88 49.599999,0" /></g></g><g
       id="g316"><path
         id="path318"
         style="fill:#9b916e;fill-opacity:1;fill-rule:nonzero;stroke:none"
         d="m 97.279999,202.88 0.160003,0 0,0.15999 -0.160003,0 0,-0.15999 z" /></g><g
       id="g320"><g
         clip-path="url(#clipPath324)"
         id="g322"><path
           id="path328"
           style="fill:none;stroke:#9b916e;stroke-width:0.5;stroke-linecap:round;stroke-linejoin:round;stroke-miterlimit:10;stroke-dasharray:none;stroke-opacity:1"
           d="m 47.68,202.88 0,19.04" /></g></g><g
       id="g330"><path
         id="path332"
         style="fill:#9b916e;fill-opacity:1;fill-rule:nonzero;stroke:none"
         d="m 47.68,221.92 0.16,0 0,0.16 -0.16,0 0,-0.16 z" /></g><g
       id="g334"><g
         clip-path="url(#clipPath338)"
         id="g336"><path
           id="path342"
           style="fill:none;stroke:#9b916e;stroke-width:0.5;stroke-linecap:round;stroke-linejoin:round;stroke-miterlimit:10;stroke-dasharray:none;stroke-opacity:1"
           d="m 97.279999,202.88 0,19.04" /></g></g><g
       id="g344"><path
         id="path346"
         style="fill:#9b916e;fill-opacity:1;fill-rule:nonzero;stroke:none"
         d="m 97.279999,221.92 0.160003,0 0,0.16 -0.160003,0 0,-0.16 z" /></g><g
       id="g348"><path
         id="path350"
         style="fill:#fffaeb;fill-opacity:1;fill-rule:nonzero;stroke:none"
         d="m 47.68,222.56 179.2,0 0,40.16 -179.2,0 0,-40.16 z" /></g><g
       id="g352"><g
         clip-path="url(#clipPath356)"
         id="g354"><path
           id="path360"
           style="fill:none;stroke:#9b916e;stroke-width:0.47999999;stroke-linecap:butt;stroke-linejoin:miter;stroke-miterlimit:10;stroke-dasharray:none;stroke-opacity:1"
           d="m 226.72,222.56 -179.04,0 0,40 179.04,0 0,-40 z" /></g></g><g
       id="g362"><path
         id="path364"
         style="fill:#fffaeb;fill-opacity:1;fill-rule:nonzero;stroke:none"
         d="m 238.72,202.88 47.84,0 0,19.2 -47.84,0 0,-19.2 z" /></g><g
       id="g366"><text
         id="text368"
         style="font-variant:normal;font-weight:normal;font-size:5.29001999px;font-family:F1;-inkscape-font-specification:F1;writing-mode:lr-tb;fill:#000000;fill-opacity:1;fill-rule:nonzero;stroke:none"
         transform="translate(247.52,208.48)"><tspan
           id="tspan370"
           y="0"
           x="0 3.0153115 6.1046004 10.706918 13.938272 17.112286 20.343639 21.771946 24.681456 27.696768">&lt;&lt;module&gt;&gt;</tspan></text>
</g><g
       id="g372"><text
         id="text374"
         style="font-variant:normal;font-weight:normal;font-size:6.73274994px;font-family:F1;-inkscape-font-specification:F1;writing-mode:lr-tb;fill:#000000;fill-opacity:1;fill-rule:nonzero;stroke:none"
         transform="translate(242.56,217.44)"><tspan
           id="tspan376"
           y="0"
           x="0 3.7030125 7.8156443 11.989949 13.942447 15.813021 21.737841 25.912146 30.086451 32.644897 36.819202">app.imgproc</tspan></text>
</g><g
       id="g378"><g
         clip-path="url(#clipPath382)"
         id="g380"><path
           id="path386"
           style="fill:none;stroke:#9b916e;stroke-width:0.5;stroke-linecap:round;stroke-linejoin:round;stroke-miterlimit:10;stroke-dasharray:none;stroke-opacity:1"
           d="m 238.72,202.88 47.67999,0" /></g></g><g
       id="g388"><path
         id="path390"
         style="fill:#9b916e;fill-opacity:1;fill-rule:nonzero;stroke:none"
         d="m 286.39999,202.88 0.16001,0 0,0.15999 -0.16001,0 0,-0.15999 z" /></g><g
       id="g392"><g
         clip-path="url(#clipPath396)"
         id="g394"><path
           id="path400"
           style="fill:none;stroke:#9b916e;stroke-width:0.5;stroke-linecap:round;stroke-linejoin:round;stroke-miterlimit:10;stroke-dasharray:none;stroke-opacity:1"
           d="m 238.72,202.88 0,19.04" /></g></g><g
       id="g402"><path
         id="path404"
         style="fill:#9b916e;fill-opacity:1;fill-rule:nonzero;stroke:none"
         d="m 238.72,221.92 0.16,0 0,0.16 -0.16,0 0,-0.16 z" /></g><g
       id="g406"><g
         clip-path="url(#clipPath410)"
         id="g408"><path
           id="path414"
           style="fill:none;stroke:#9b916e;stroke-width:0.5;stroke-linecap:round;stroke-linejoin:round;stroke-miterlimit:10;stroke-dasharray:none;stroke-opacity:1"
           d="m 286.39999,202.88 0,19.04" /></g></g><g
       id="g416"><path
         id="path418"
         style="fill:#9b916e;fill-opacity:1;fill-rule:nonzero;stroke:none"
         d="m 286.39999,221.92 0.16001,0 0,0.16 -0.16001,0 0,-0.16 z" /></g><g
       id="g420"><path
         id="path422"
         style="fill:#fffaeb;fill-opacity:1;fill-rule:nonzero;stroke:none"
         d="m 238.72,222.56 179.20001,0 0,40.16 -179.20001,0 0,-40.16 z" /></g><g
       id="g424"><g
         clip-path="url(#clipPath428)"
         id="g426"><path
           id="path432"
           style="fill:none;stroke:#9b916e;stroke-width:0.47999999;stroke-linecap:butt;stroke-linejoin:miter;stroke-miterlimit:10;stroke-dasharray:none;stroke-opacity:1"
           d="m 417.76001,222.56 -179.04001,0 0,40 179.04001,0 0,-40 z" /></g></g><g
       id="g434"><g
         clip-path="url(#clipPath438)"
         id="g436"><path
           id="path442"
           style="fill:none;stroke:#9b916e;stroke-width:0.47999999;stroke-linecap:butt;stroke-linejoin:miter;stroke-miterlimit:10;stroke-dasharray:none;stroke-opacity:1"
           d="m 429.76001,43.52 -394.08001,0 0,231.04 394.08001,0 0,-231.04 z" /></g></g></g></svg>